<svg width="48" height="48" viewBox="0 0 48 48" fill="none" xmlns="http://www.w3.org/2000/svg">
<path d="M8.8 35.2H23.1664C22.6216 35.92 22.2064 36.7336 21.9424 37.6H8.8C7.52696 37.6 6.30606 37.0943 5.40589 36.1941C4.50571 35.2939 4 34.073 4 32.8V8.8C4 7.52696 4.50571 6.30606 5.40589 5.40589C6.30606 4.50571 7.52696 4 8.8 4H32.8C34.073 4 35.2939 4.50571 36.1941 5.40589C37.0943 6.30606 37.6 7.52696 37.6 8.8V21.3568C36.8176 21.6928 36.0856 22.18 35.4472 22.8184L35.2 23.0656V8.8C35.2 8.16348 34.9471 7.55303 34.4971 7.10294C34.047 6.65286 33.4365 6.4 32.8 6.4H8.8C8.16348 6.4 7.55303 6.65286 7.10294 7.10294C6.65286 7.55303 6.4 8.16348 6.4 8.8V32.8C6.4 33.4365 6.65286 34.047 7.10294 34.4971C7.55303 34.9471 8.16348 35.2 8.8 35.2ZM28 12.4C28 12.0817 28.1264 11.7765 28.3515 11.5515C28.5765 11.3264 28.8817 11.2 29.2 11.2C29.5183 11.2 29.8235 11.3264 30.0485 11.5515C30.2736 11.7765 30.4 12.0817 30.4 12.4V27.8656L28.288 29.9776C28.1023 29.7611 28.0001 29.4853 28 29.2V12.4ZM11.2 17.2C11.2 16.8817 11.3264 16.5765 11.5515 16.3515C11.7765 16.1264 12.0817 16 12.4 16C12.7183 16 13.0235 16.1264 13.2485 16.3515C13.4736 16.5765 13.6 16.8817 13.6 17.2V29.2C13.6 29.5183 13.4736 29.8235 13.2485 30.0485C13.0235 30.2736 12.7183 30.4 12.4 30.4C12.0817 30.4 11.7765 30.2736 11.5515 30.0485C11.3264 29.8235 11.2 29.5183 11.2 29.2V17.2ZM20.8 20.8C20.4817 20.8 20.1765 20.9264 19.9515 21.1515C19.7264 21.3765 19.6 21.6817 19.6 22V29.2C19.6 29.5183 19.7264 29.8235 19.9515 30.0485C20.1765 30.2736 20.4817 30.4 20.8 30.4C21.1183 30.4 21.4235 30.2736 21.6485 30.0485C21.8736 29.8235 22 29.5183 22 29.2V22C22 21.6817 21.8736 21.3765 21.6485 21.1515C21.4235 20.9264 21.1183 20.8 20.8 20.8ZM25.552 36.1048L37.144 24.5128C37.9861 23.671 39.1281 23.1982 40.3189 23.1984C41.5096 23.1987 42.6514 23.6719 43.4932 24.514C44.335 25.3561 44.8078 26.4981 44.8076 27.6889C44.8073 28.8796 44.3341 30.0214 43.492 30.8632L31.9 42.4528C31.2247 43.1284 30.3786 43.6079 29.452 43.84L25.8568 44.7376C25.4993 44.8267 25.1249 44.8218 24.7698 44.7234C24.4148 44.625 24.0912 44.4365 23.8306 44.1761C23.57 43.9157 23.3811 43.5923 23.2824 43.2374C23.1837 42.8824 23.1784 42.508 23.2672 42.1504L24.1672 38.5552C24.3974 37.6278 24.8771 36.7812 25.5544 36.1072L25.552 36.1048Z" fill="#27DEBF"/>
</svg>
