<svg width="48" height="48" viewBox="0 0 48 48" fill="none" xmlns="http://www.w3.org/2000/svg">
<path d="M29.218 42.5C36.5534 42.5 42.5 36.5535 42.5 29.218C42.5 21.8826 36.5534 15.936 29.218 15.936C21.8825 15.936 15.936 21.8826 15.936 29.218C15.936 36.5535 21.8825 42.5 29.218 42.5Z" stroke="#27DEBF" stroke-linecap="round" stroke-linejoin="round"/>
<path d="M13.09 20.75H18.735M25.115 34.294C25.5085 34.7906 26.0153 35.1854 26.5931 35.4454C27.1708 35.7054 27.8025 35.8229 28.435 35.788H30.428C31.3087 35.788 32.1533 35.4382 32.776 34.8155C33.3987 34.1927 33.7485 33.3482 33.7485 32.4675C33.7485 31.5869 33.3987 30.7423 32.776 30.1196C32.1533 29.4968 31.3087 29.147 30.428 29.147H28.269C27.3884 29.147 26.5438 28.7972 25.9211 28.1745C25.2984 27.5517 24.9485 26.7072 24.9485 25.8265C24.9485 24.9459 25.2984 24.1013 25.9211 23.4786C26.5438 22.8558 27.3884 22.506 28.269 22.506H30.262C30.8986 22.4337 31.5429 22.5343 32.1271 22.7973C32.7114 23.0602 33.2139 23.4756 33.582 24L25.115 34.294ZM29.265 20.68V37.282V20.68ZM16.495 24.692C16.047 24.2722 15.6903 23.7645 15.4472 23.2007C15.204 22.6369 15.0797 22.029 15.082 21.415V17.098C15.0796 16.5087 15.194 15.9247 15.4184 15.3798C15.6429 14.8349 15.973 14.3398 16.3898 13.9231C16.8066 13.5064 17.3017 13.1764 17.8467 12.952C18.3917 12.7277 18.9757 12.6135 19.565 12.616C20.2308 12.6284 20.8863 12.7828 21.4875 13.0691C22.0887 13.3554 22.6218 13.7669 23.051 14.276L16.495 24.692ZM13.09 17.43H18.735H13.09Z" stroke="#27DEBF" stroke-linecap="round" stroke-linejoin="round"/>
<path d="M16.02 31.7741C13.6819 31.277 11.5212 30.158 9.76592 28.5353C8.01065 26.9126 6.72585 24.8462 6.04703 22.5542C5.36822 20.2622 5.32054 17.8294 5.90904 15.5126C6.49755 13.1957 7.70041 11.0806 9.39075 9.3904C11.0811 7.70016 13.1963 6.49743 15.5132 5.90908C17.8301 5.32073 20.2628 5.36855 22.5548 6.04752C24.8468 6.72648 26.913 8.01141 28.5356 9.76678C30.1582 11.5221 31.277 13.6829 31.774 16.0211" stroke="#27DEBF" stroke-linecap="round" stroke-linejoin="round"/>
</svg>
