<svg width="48" height="48" viewBox="0 0 48 48" fill="none" xmlns="http://www.w3.org/2000/svg">
<path d="M24 4C12.972 4 4 12.972 4 24V32.286C4 34.334 5.794 36 8 36H10C10.5304 36 11.0391 35.7893 11.4142 35.4142C11.7893 35.0391 12 34.5304 12 34V23.714C12 23.1836 11.7893 22.6749 11.4142 22.2998C11.0391 21.9247 10.5304 21.714 10 21.714H8.184C9.296 13.974 15.956 8 24 8C32.044 8 38.704 13.974 39.816 21.714H38C37.4696 21.714 36.9609 21.9247 36.5858 22.2998C36.2107 22.6749 36 23.1836 36 23.714V36C36 38.206 34.206 40 32 40H28V38H20V44H32C36.412 44 40 40.412 40 36C42.206 36 44 34.334 44 32.286V24C44 12.972 35.028 4 24 4Z" fill="#27DEBF"/>
</svg>
